<?xml version="1.0" encoding="UTF-8"?>
<!DOCTYPE svg PUBLIC "-//W3C//DTD SVG 1.1//EN" "http://www.w3.org/Graphics/SVG/1.1/DTD/svg11.dtd">
<svg xmlns="http://www.w3.org/2000/svg" version="1.1" width="504px" height="71px" style="shape-rendering:geometricPrecision; text-rendering:geometricPrecision; image-rendering:optimizeQuality; fill-rule:evenodd; clip-rule:evenodd" xmlns:xlink="http://www.w3.org/1999/xlink">
<g><path style="opacity:0.751" fill="#eef2ee" d="M 182.5,-0.5 C 186.5,-0.5 190.5,-0.5 194.5,-0.5C 199.207,1.71515 202.373,5.38182 204,10.5C 204.667,24.8333 204.667,39.1667 204,53.5C 203.157,57.2004 201.324,60.2004 198.5,62.5C 191.73,65.2852 185.063,65.1186 178.5,62C 176.383,60.2691 174.883,58.1024 174,55.5C 173.333,40.1667 173.333,24.8333 174,9.5C 174.791,8.25501 175.291,6.92167 175.5,5.5C 177.275,2.78913 179.609,0.789131 182.5,-0.5 Z M 185.5,16.5 C 186.267,17.172 186.934,18.0053 187.5,19C 187.457,30.2907 187.457,41.7907 187.5,53.5C 186.883,53.3893 186.383,53.056 186,52.5C 185.5,40.5046 185.333,28.5046 185.5,16.5 Z"/></g>
<g><path style="opacity:0.87" fill="#f7f9f7" d="M 29.5,38.5 C 25.3263,40.064 20.993,40.7306 16.5,40.5C 16.5,42.5 16.5,44.5 16.5,46.5C 16.6661,52.1764 16.4994,57.8431 16,63.5C 15.6174,64.056 15.1174,64.3893 14.5,64.5C 11.3752,63.5206 8.04185,63.1872 4.5,63.5C 4.5,42.8333 4.5,22.1667 4.5,1.5C 28.7694,-4.73471 38.936,4.59862 35,29.5C 34.1572,33.2004 32.3239,36.2004 29.5,38.5 Z M 16.5,17.5 C 17.2891,17.7828 17.9558,18.2828 18.5,19C 18.2643,22.4511 18.2643,25.9511 18.5,29.5C 16.5772,25.9707 15.9106,21.9707 16.5,17.5 Z"/></g>
<g><path style="opacity:0.879" fill="#f0f3f0" d="M 76.5,64.5 C 73.0381,63.5184 69.3714,63.185 65.5,63.5C 64.7734,56.2001 64.2734,48.8667 64,41.5C 62.2111,39.771 60.0444,39.1043 57.5,39.5C 57.5,41.5 57.5,43.5 57.5,45.5C 57.8235,52.0221 57.4902,58.3554 56.5,64.5C 53.0381,63.5184 49.3714,63.185 45.5,63.5C 45.5,42.8333 45.5,22.1667 45.5,1.5C 52.6549,0.344847 59.9882,0.178181 67.5,1C 71.5733,2.07214 74.4067,4.57214 76,8.5C 76.6667,14.8333 76.6667,21.1667 76,27.5C 75.0857,29.6641 73.919,31.6641 72.5,33.5C 75.6464,36.4635 77.1464,40.1302 77,44.5C 77.8206,51.3464 77.654,58.013 76.5,64.5 Z M 57.5,17.5 C 58.1174,17.6107 58.6174,17.944 59,18.5C 59.4983,21.8168 59.665,25.1501 59.5,28.5C 57.5864,25.3157 56.9197,21.649 57.5,17.5 Z"/></g>
<g><path style="opacity:0.881" fill="#f3f6f3" d="M 88.5,1.5 C 97.9856,0.506201 107.652,0.172867 117.5,0.5C 117.815,4.37141 117.482,8.03808 116.5,11.5C 111.489,11.3341 106.489,11.5007 101.5,12C 100.199,13.6155 100.199,15.1155 101.5,16.5C 101.5,19.8333 101.5,23.1667 101.5,26.5C 105.833,26.5 110.167,26.5 114.5,26.5C 114.815,30.3714 114.482,34.0381 113.5,37.5C 109.167,37.5 104.833,37.5 100.5,37.5C 100.366,39.2915 100.699,40.9582 101.5,42.5C 101.5,45.8333 101.5,49.1667 101.5,52.5C 106.833,52.5 112.167,52.5 117.5,52.5C 117.817,56.7016 117.483,60.7016 116.5,64.5C 107.682,63.5067 98.6822,63.1734 89.5,63.5C 89.8305,42.6599 89.4972,21.9933 88.5,1.5 Z"/></g>
<g><path style="opacity:0.869" fill="#eff1ef" d="M 155.5,61.5 C 147.001,63.3735 138.334,64.0402 129.5,63.5C 129.5,42.8333 129.5,22.1667 129.5,1.5C 136.989,0.34434 144.655,0.177673 152.5,1C 155.937,2.10491 158.437,4.27158 160,7.5C 161.619,22.7655 161.952,38.0988 161,53.5C 160.389,57.0703 158.556,59.737 155.5,61.5 Z M 142.5,17.5 C 143.222,17.9175 143.722,18.5842 144,19.5C 144.5,30.495 144.667,41.495 144.5,52.5C 142.522,41.2146 141.855,29.5479 142.5,17.5 Z"/></g>
<g><path style="opacity:0.888" fill="#e9edea" d="M 235.5,20.5 C 236.192,26.1772 237.025,31.8439 238,37.5C 239.834,25.4884 241.668,13.4884 243.5,1.5C 248.64,0.511923 253.974,0.178589 259.5,0.5C 259.831,21.6733 259.497,42.6733 258.5,63.5C 254.833,63.5 251.167,63.5 247.5,63.5C 247.666,54.8269 247.5,46.1603 247,37.5C 245.723,46.1615 244.556,54.8282 243.5,63.5C 239.563,63.7935 235.73,63.4601 232,62.5C 230.521,54.5214 229.188,46.5214 228,38.5C 227.5,46.8267 227.334,55.16 227.5,63.5C 223.833,63.5 220.167,63.5 216.5,63.5C 216.5,42.8333 216.5,22.1667 216.5,1.5C 221.64,0.511923 226.974,0.178589 232.5,0.5C 233.5,7.16406 234.5,13.8307 235.5,20.5 Z"/></g>
<g><path style="opacity:0.839" fill="#fdfefd" d="M 282.5,64.5 C 279.375,63.5206 276.042,63.1872 272.5,63.5C 272.5,42.8333 272.5,22.1667 272.5,1.5C 276.298,0.516582 280.298,0.183249 284.5,0.5C 284.667,21.5026 284.5,42.5026 284,63.5C 283.617,64.056 283.117,64.3893 282.5,64.5 Z"/></g>
<g><path style="opacity:0.858" fill="#f0f3f1" d="M 313.5,5.5 C 314.517,12.2324 315.85,18.8991 317.5,25.5C 318.148,27.0858 318.648,28.7525 319,30.5C 319.825,20.6578 319.658,10.9911 318.5,1.5C 322.298,0.516582 326.298,0.183249 330.5,0.5C 330.667,21.5026 330.5,42.5026 330,63.5C 329.617,64.056 329.117,64.3893 328.5,64.5C 325.038,63.5184 321.371,63.185 317.5,63.5C 315.137,52.3794 312.303,41.3794 309,30.5C 308.5,38.8267 308.334,47.16 308.5,55.5C 308.806,58.3854 308.473,61.0521 307.5,63.5C 304.167,63.5 300.833,63.5 297.5,63.5C 297.5,42.8333 297.5,22.1667 297.5,1.5C 301.981,0.351588 306.648,0.184922 311.5,1C 312.099,2.62247 312.766,4.12247 313.5,5.5 Z"/></g>
<g><path style="opacity:0.852" fill="#f4f6f4" d="M 349.5,1.5 C 352.146,0.835578 354.979,0.502244 358,0.5C 361.276,0.557666 364.276,1.22433 367,2.5C 370.113,22.0093 373.279,41.5093 376.5,61C 376.472,62.0698 376.139,62.9032 375.5,63.5C 371.774,63.8226 368.107,63.4892 364.5,62.5C 363.618,59.2094 362.952,55.876 362.5,52.5C 359.167,52.5 355.833,52.5 352.5,52.5C 352.5,54.5 352.5,56.5 352.5,58.5C 352.741,60.8984 352.074,62.8984 350.5,64.5C 347.375,63.5206 344.042,63.1872 340.5,63.5C 343.453,43.2794 346.787,23.1128 350.5,3C 350.43,2.2352 350.097,1.7352 349.5,1.5 Z"/></g>
<g><path style="opacity:0.951" fill="#ebedeb" d="M 403.5,6.5 C 404.521,13.5847 406.021,20.5847 408,27.5C 408.5,18.8397 408.666,10.1731 408.5,1.5C 411.962,0.518362 415.629,0.185029 419.5,0.5C 419.831,22.0065 419.497,43.3399 418.5,64.5C 414.769,63.8045 410.935,63.1378 407,62.5C 404.309,51.0688 401.309,39.7355 398,28.5C 397.5,36.4931 397.334,44.4931 397.5,52.5C 397.817,56.7016 397.483,60.7016 396.5,64.5C 393.375,63.5206 390.042,63.1872 386.5,63.5C 386.5,42.8333 386.5,22.1667 386.5,1.5C 391.305,0.512827 396.305,0.179494 401.5,0.5C 401.595,2.7857 402.262,4.7857 403.5,6.5 Z"/></g>
<g><path style="opacity:0.981" fill="#eeefee" d="M 460.5,11.5 C 457.5,11.5 454.5,11.5 451.5,11.5C 451.5,13.1667 451.5,14.8333 451.5,16.5C 451.83,32.6754 451.496,48.6754 450.5,64.5C 447.038,63.5184 443.371,63.185 439.5,63.5C 439.5,46.1667 439.5,28.8333 439.5,11.5C 436.167,11.5 432.833,11.5 429.5,11.5C 429.5,8.16667 429.5,4.83333 429.5,1.5C 439.987,0.50558 450.654,0.172247 461.5,0.5C 461.815,4.37141 461.482,8.03808 460.5,11.5 Z"/></g>
<g><path style="opacity:0.421" fill="#010101" d="M 4.5,1.5 C 4.5,22.1667 4.5,42.8333 4.5,63.5C 8.04185,63.1872 11.3752,63.5206 14.5,64.5C 13.1879,66.4788 11.5212,68.1455 9.5,69.5C 6.19857,69.1826 2.86524,69.1826 -0.5,69.5C -0.5,48.1667 -0.5,26.8333 -0.5,5.5C 1.16667,4.16667 2.83333,2.83333 4.5,1.5 Z"/></g>
<g><path style="opacity:0.356" fill="#010101" d="M 45.5,1.5 C 45.5,22.1667 45.5,42.8333 45.5,63.5C 49.3714,63.185 53.0381,63.5184 56.5,64.5C 55.1498,66.6829 53.3164,68.3496 51,69.5C 47.536,69.6215 44.2026,69.2882 41,68.5C 40.3333,47.5 40.3333,26.5 41,5.5C 42.3712,3.95862 43.8712,2.62529 45.5,1.5 Z"/></g>
<g><path style="opacity:0.345" fill="#080808" d="M 88.5,1.5 C 89.4972,21.9933 89.8305,42.6599 89.5,63.5C 98.6822,63.1734 107.682,63.5067 116.5,64.5C 114.438,66.5639 112.105,68.2305 109.5,69.5C 100.964,68.9174 92.4637,68.5841 84,68.5C 83.3333,47.5 83.3333,26.5 84,5.5C 85.3712,3.95862 86.8712,2.62529 88.5,1.5 Z"/></g>
<g><path style="opacity:0.357" fill="#020202" d="M 129.5,1.5 C 129.5,22.1667 129.5,42.8333 129.5,63.5C 138.334,64.0402 147.001,63.3735 155.5,61.5C 152.106,67.0321 147.106,69.6987 140.5,69.5C 135.3,68.9188 130.133,68.5854 125,68.5C 124.333,47.5 124.333,26.5 125,5.5C 126.371,3.95862 127.871,2.62529 129.5,1.5 Z"/></g>
<g><path style="opacity:0.371" fill="#040404" d="M 216.5,1.5 C 216.5,22.1667 216.5,42.8333 216.5,63.5C 220.167,63.5 223.833,63.5 227.5,63.5C 227.334,55.16 227.5,46.8267 228,38.5C 229.188,46.5214 230.521,54.5214 232,62.5C 235.73,63.4601 239.563,63.7935 243.5,63.5C 244.556,54.8282 245.723,46.1615 247,37.5C 247.5,46.1603 247.666,54.8269 247.5,63.5C 251.167,63.5 254.833,63.5 258.5,63.5C 256.818,66.0145 254.652,68.0145 252,69.5C 249.283,69.3587 246.616,69.3587 244,69.5C 242.956,68.3774 242.29,67.0441 242,65.5C 240.611,67.2273 238.944,68.5606 237,69.5C 234.15,69.4251 231.316,69.4251 228.5,69.5C 226.931,68.286 226.098,66.6193 226,64.5C 224.333,66.1667 222.667,67.8333 221,69.5C 217.926,69.4761 214.926,69.1428 212,68.5C 211.333,47.5 211.333,26.5 212,5.5C 213.371,3.95862 214.871,2.62529 216.5,1.5 Z"/></g>
<g><path style="opacity:0.42" fill="#010101" d="M 272.5,1.5 C 272.5,22.1667 272.5,42.8333 272.5,63.5C 276.042,63.1872 279.375,63.5206 282.5,64.5C 281.188,66.4788 279.521,68.1455 277.5,69.5C 274.199,69.1826 270.865,69.1826 267.5,69.5C 267.333,48.1641 267.5,26.8307 268,5.5C 269.371,3.95862 270.871,2.62529 272.5,1.5 Z"/></g>
<g><path style="opacity:0.422" fill="#010101" d="M 297.5,1.5 C 297.5,22.1667 297.5,42.8333 297.5,63.5C 300.833,63.5 304.167,63.5 307.5,63.5C 305.873,65.6298 304.04,67.6298 302,69.5C 298.899,69.1161 295.733,69.1161 292.5,69.5C 292.333,48.1641 292.5,26.8307 293,5.5C 294.371,3.95862 295.871,2.62529 297.5,1.5 Z"/></g>
<g><path style="opacity:0.37" fill="#050505" d="M 318.5,1.5 C 318.826,9.68413 318.492,17.6841 317.5,25.5C 315.85,18.8991 314.517,12.2324 313.5,5.5C 315.167,4.16667 316.833,2.83333 318.5,1.5 Z"/></g>
<g><path style="opacity:0.335" fill="#010101" d="M 386.5,1.5 C 386.5,22.1667 386.5,42.8333 386.5,63.5C 390.042,63.1872 393.375,63.5206 396.5,64.5C 395.188,66.4788 393.521,68.1455 391.5,69.5C 388.223,69.5456 385.056,69.2123 382,68.5C 381.333,47.5 381.333,26.5 382,5.5C 383.371,3.95862 384.871,2.62529 386.5,1.5 Z"/></g>
<g><path style="opacity:0.383" fill="#010101" d="M 408.5,1.5 C 408.666,10.1731 408.5,18.8397 408,27.5C 406.021,20.5847 404.521,13.5847 403.5,6.5C 404.833,4.5 406.5,2.83333 408.5,1.5 Z"/></g>
<g><path style="opacity:0.348" fill="#010101" d="M 429.5,1.5 C 429.5,4.83333 429.5,8.16667 429.5,11.5C 432.833,11.5 436.167,11.5 439.5,11.5C 439.5,28.8333 439.5,46.1667 439.5,63.5C 443.371,63.185 447.038,63.5184 450.5,64.5C 449.15,66.6829 447.316,68.3496 445,69.5C 441.536,69.6215 438.203,69.2882 435,68.5C 434.5,51.1699 434.333,33.8365 434.5,16.5C 431.167,16.5 427.833,16.5 424.5,16.5C 424.335,12.8183 424.501,9.15159 425,5.5C 426.371,3.95862 427.871,2.62529 429.5,1.5 Z"/></g>
<g><path style="opacity:1" fill="#49814d" d="M 66.5,3.5 C 60.5,3.5 54.5,3.5 48.5,3.5C 48.5,22.8333 48.5,42.1667 48.5,61.5C 47.5029,42.0071 47.1696,22.3404 47.5,2.5C 54.0221,2.1765 60.3554,2.50984 66.5,3.5 Z"/></g>
<g><path style="opacity:1" fill="#1d6221" d="M 184.5,1.5 C 193.728,0.0198101 199.561,3.68648 202,12.5C 202.667,25.5 202.667,38.5 202,51.5C 199.524,61.1287 193.357,64.6287 183.5,62C 179.667,60.8333 177.167,58.3333 176,54.5C 175.333,39.5 175.333,24.5 176,9.5C 177.73,5.56987 180.564,2.9032 184.5,1.5 Z M 185.5,16.5 C 186.267,17.172 186.934,18.0053 187.5,19C 187.457,30.2907 187.457,41.7907 187.5,53.5C 186.883,53.3893 186.383,53.056 186,52.5C 185.5,40.5046 185.333,28.5046 185.5,16.5 Z"/></g>
<g><path style="opacity:0.405" fill="#0a0a0a" d="M 243.5,1.5 C 241.668,13.4884 239.834,25.4884 238,37.5C 237.025,31.8439 236.192,26.1772 235.5,20.5C 236.644,16.0284 237.477,11.3617 238,6.5C 239.704,4.62658 241.537,2.95991 243.5,1.5 Z"/></g>
<g><path style="opacity:0.371" fill="#070707" d="M 349.5,1.5 C 350.097,1.7352 350.43,2.2352 350.5,3C 346.787,23.1128 343.453,43.2794 340.5,63.5C 344.042,63.1872 347.375,63.5206 350.5,64.5C 349.188,66.4788 347.521,68.1455 345.5,69.5C 342.833,69.5 340.167,69.5 337.5,69.5C 336.009,68.6519 335.342,67.3186 335.5,65.5C 338.649,45.5936 341.816,25.9269 345,6.5C 346.707,4.96252 348.207,3.29585 349.5,1.5 Z"/></g>
<g><path style="opacity:1" fill="#347338" d="M 416.5,61.5 C 416.5,42.1667 416.5,22.8333 416.5,3.5C 414.833,3.5 413.167,3.5 411.5,3.5C 411.828,15.3453 411.495,27.012 410.5,38.5C 410.5,26.5 410.5,14.5 410.5,2.5C 412.833,2.5 415.167,2.5 417.5,2.5C 417.83,22.3404 417.497,42.0071 416.5,61.5 Z"/></g>
<g><path style="opacity:1" fill="#1e6322" d="M 6.5,2.5 C 12.1764,2.33391 17.8431,2.50058 23.5,3C 27.8963,3.72967 30.7296,6.22967 32,10.5C 32.8959,18.2464 32.5625,25.913 31,33.5C 26.471,37.9888 20.971,39.6554 14.5,38.5C 14.5,46.1667 14.5,53.8333 14.5,61.5C 11.8333,61.5 9.16667,61.5 6.5,61.5C 6.5,41.8333 6.5,22.1667 6.5,2.5 Z M 16.5,17.5 C 17.2891,17.7828 17.9558,18.2828 18.5,19C 18.2643,22.4511 18.2643,25.9511 18.5,29.5C 16.5772,25.9707 15.9106,21.9707 16.5,17.5 Z"/></g>
<g><path style="opacity:1" fill="#1b611f" d="M 66.5,3.5 C 70.417,4.24834 72.917,6.58167 74,10.5C 74.6667,15.5 74.6667,20.5 74,25.5C 72.7823,28.5577 70.949,31.2244 68.5,33.5C 71.2557,35.0911 73.089,37.4245 74,40.5C 74.4996,47.4921 74.6663,54.4921 74.5,61.5C 71.8806,61.7683 69.3806,61.435 67,60.5C 66.9263,53.3938 66.2597,46.3938 65,39.5C 62.1737,37.6602 59.0071,36.9935 55.5,37.5C 55.5,45.5 55.5,53.5 55.5,61.5C 53.1667,61.5 50.8333,61.5 48.5,61.5C 48.5,42.1667 48.5,22.8333 48.5,3.5C 54.5,3.5 60.5,3.5 66.5,3.5 Z M 57.5,17.5 C 58.1174,17.6107 58.6174,17.944 59,18.5C 59.4983,21.8168 59.665,25.1501 59.5,28.5C 57.5864,25.3157 56.9197,21.649 57.5,17.5 Z"/></g>
<g><path style="opacity:1" fill="#1c6120" d="M 91.5,2.5 C 99.5,2.5 107.5,2.5 115.5,2.5C 115.5,4.83333 115.5,7.16667 115.5,9.5C 109.833,9.5 104.167,9.5 98.5,9.5C 98.5,15.8333 98.5,22.1667 98.5,28.5C 103.167,28.5 107.833,28.5 112.5,28.5C 112.5,30.8333 112.5,33.1667 112.5,35.5C 107.833,35.5 103.167,35.5 98.5,35.5C 98.5,41.8333 98.5,48.1667 98.5,54.5C 104.167,54.5 109.833,54.5 115.5,54.5C 115.5,56.8333 115.5,59.1667 115.5,61.5C 107.5,61.5 99.5,61.5 91.5,61.5C 91.5,41.8333 91.5,22.1667 91.5,2.5 Z"/></g>
<g><path style="opacity:1" fill="#206423" d="M 131.5,2.5 C 155.232,-1.59788 164.566,8.23545 159.5,32C 159.333,38.5 159.167,45 159,51.5C 158.27,56.1548 155.77,59.3214 151.5,61C 144.842,61.4996 138.175,61.6663 131.5,61.5C 131.5,41.8333 131.5,22.1667 131.5,2.5 Z M 142.5,17.5 C 143.222,17.9175 143.722,18.5842 144,19.5C 144.5,30.495 144.667,41.495 144.5,52.5C 142.522,41.2146 141.855,29.5479 142.5,17.5 Z"/></g>
<g><path style="opacity:1" fill="#216424" d="M 218.5,2.5 C 222.5,2.5 226.5,2.5 230.5,2.5C 232.665,16.1562 234.832,29.8229 237,43.5C 237.308,44.3081 237.808,44.9747 238.5,45.5C 240.991,31.5563 243.157,17.5563 245,3.5C 248.73,2.53986 252.563,2.20653 256.5,2.5C 256.5,22.1667 256.5,41.8333 256.5,61.5C 254.167,61.5 251.833,61.5 249.5,61.5C 249.833,47.1512 249.499,32.8179 248.5,18.5C 245.703,32.7464 243.369,47.0797 241.5,61.5C 238.833,61.5 236.167,61.5 233.5,61.5C 231.818,47.0601 229.485,32.7268 226.5,18.5C 225.501,32.8179 225.167,47.1512 225.5,61.5C 223.167,61.5 220.833,61.5 218.5,61.5C 218.5,41.8333 218.5,22.1667 218.5,2.5 Z"/></g>
<g><path style="opacity:1" fill="#256627" d="M 274.5,2.5 C 277.167,2.5 279.833,2.5 282.5,2.5C 282.5,22.1667 282.5,41.8333 282.5,61.5C 279.833,61.5 277.167,61.5 274.5,61.5C 274.5,41.8333 274.5,22.1667 274.5,2.5 Z"/></g>
<g><path style="opacity:1" fill="#1d6221" d="M 299.5,2.5 C 303.106,2.21083 306.606,2.54416 310,3.5C 313.025,15.5998 316.358,27.5998 320,39.5C 321.479,27.327 321.979,14.9937 321.5,2.5C 323.5,2.5 325.5,2.5 327.5,2.5C 327.5,22.1667 327.5,41.8333 327.5,61.5C 324.289,61.988 321.456,61.3213 319,59.5C 315.61,45.2639 311.61,31.2639 307,17.5C 306.5,32.1629 306.333,46.8295 306.5,61.5C 304.167,61.5 301.833,61.5 299.5,61.5C 299.5,41.8333 299.5,22.1667 299.5,2.5 Z"/></g>
<g><path style="opacity:1" fill="#206323" d="M 351.5,2.5 C 356.322,1.93466 360.822,2.60133 365,4.5C 368.269,23.4476 371.103,42.4476 373.5,61.5C 370.881,61.7683 368.381,61.435 366,60.5C 365.545,57.1464 365.045,53.8131 364.5,50.5C 360.167,50.5 355.833,50.5 351.5,50.5C 351.048,53.876 350.382,57.2094 349.5,60.5C 347.167,61.8333 344.833,61.8333 342.5,60.5C 346.059,41.2574 349.059,21.924 351.5,2.5 Z"/></g>
<g><path style="opacity:1" fill="#206423" d="M 410.5,38.5 C 411.495,27.012 411.828,15.3453 411.5,3.5C 413.167,3.5 414.833,3.5 416.5,3.5C 416.5,22.8333 416.5,42.1667 416.5,61.5C 413.881,61.7683 411.381,61.435 409,60.5C 405.597,45.8782 401.43,31.5449 396.5,17.5C 395.501,32.1515 395.167,46.8182 395.5,61.5C 393.167,61.5 390.833,61.5 388.5,61.5C 388.5,41.8333 388.5,22.1667 388.5,2.5C 392.226,2.17744 395.893,2.51078 399.5,3.5C 402.633,15.5631 405.966,27.5631 409.5,39.5C 410.107,39.3764 410.44,39.0431 410.5,38.5 Z"/></g>
<g><path style="opacity:1" fill="#216424" d="M 431.5,2.5 C 440.833,2.5 450.167,2.5 459.5,2.5C 459.5,4.83333 459.5,7.16667 459.5,9.5C 456.167,9.5 452.833,9.5 449.5,9.5C 449.5,26.8333 449.5,44.1667 449.5,61.5C 446.833,61.5 444.167,61.5 441.5,61.5C 441.5,44.1667 441.5,26.8333 441.5,9.5C 438.167,9.5 434.833,9.5 431.5,9.5C 431.5,7.16667 431.5,4.83333 431.5,2.5 Z"/></g>
<g><path style="opacity:0.337" fill="#0f0f0f" d="M 175.5,5.5 C 175.291,6.92167 174.791,8.25501 174,9.5C 173.333,24.8333 173.333,40.1667 174,55.5C 174.883,58.1024 176.383,60.2691 178.5,62C 185.063,65.1186 191.73,65.2852 198.5,62.5C 195.453,66.684 191.453,69.3507 186.5,70.5C 184.833,70.5 183.167,70.5 181.5,70.5C 177.031,69.5642 173.198,67.2309 170,63.5C 169.027,61.6079 168.36,59.6079 168,57.5C 167.333,43.8333 167.333,30.1667 168,16.5C 169.029,11.7591 171.529,8.09248 175.5,5.5 Z"/></g>
<g><path style="opacity:0.823" fill="#f5f7f5" d="M 185.5,8.5 C 188.97,7.87483 191.804,8.87483 194,11.5C 194.667,25.1667 194.667,38.8333 194,52.5C 190.38,56.4875 186.713,56.4875 183,52.5C 182.333,39.1667 182.333,25.8333 183,12.5C 183.662,11.0161 184.496,9.68275 185.5,8.5 Z M 185.5,16.5 C 186.267,17.172 186.934,18.0053 187.5,19C 187.457,30.2907 187.457,41.7907 187.5,53.5C 186.883,53.3893 186.383,53.056 186,52.5C 185.5,40.5046 185.333,28.5046 185.5,16.5 Z"/></g>
<g><path style="opacity:0.895" fill="#edf1ed" d="M 14.5,9.5 C 23.1618,8.16185 26.8285,11.8285 25.5,20.5C 26.8285,29.1715 23.1618,32.8382 14.5,31.5C 14.5,24.1667 14.5,16.8333 14.5,9.5 Z M 16.5,17.5 C 17.2891,17.7828 17.9558,18.2828 18.5,19C 18.2643,22.4511 18.2643,25.9511 18.5,29.5C 16.5772,25.9707 15.9106,21.9707 16.5,17.5 Z"/></g>
<g><path style="opacity:0.997" fill="#f2f4f2" d="M 55.5,9.5 C 64.2426,7.74322 67.9093,11.2432 66.5,20C 67.578,28.4215 63.9113,31.9215 55.5,30.5C 55.5,23.5 55.5,16.5 55.5,9.5 Z M 57.5,17.5 C 58.1174,17.6107 58.6174,17.944 59,18.5C 59.4983,21.8168 59.665,25.1501 59.5,28.5C 57.5864,25.3157 56.9197,21.649 57.5,17.5 Z"/></g>
<g><path style="opacity:0.811" fill="#fafafa" d="M 139.5,9.5 C 142.518,9.33537 145.518,9.50204 148.5,10C 149.333,10.8333 150.167,11.6667 151,12.5C 151.167,19 151.333,25.5 151.5,32C 151.632,39.2674 151.132,46.4341 150,53.5C 146.606,54.4558 143.106,54.7892 139.5,54.5C 139.5,39.5 139.5,24.5 139.5,9.5 Z M 142.5,17.5 C 143.222,17.9175 143.722,18.5842 144,19.5C 144.5,30.495 144.667,41.495 144.5,52.5C 142.522,41.2146 141.855,29.5479 142.5,17.5 Z"/></g>
<g><path style="opacity:0.418" fill="#050505" d="M 187.5,53.5 C 187.457,41.7907 187.457,30.2907 187.5,19C 186.934,18.0053 186.267,17.172 185.5,16.5C 184.092,12.0691 185.759,10.2358 190.5,11C 191,11.5 191.5,12 192,12.5C 192.667,25.5 192.667,38.5 192,51.5C 190.951,53.1066 189.451,53.7733 187.5,53.5 Z"/></g>
<g><path style="opacity:0.347" fill="#0f0f0f" d="M 18.5,29.5 C 18.2643,25.9511 18.2643,22.4511 18.5,19C 17.9558,18.2828 17.2891,17.7828 16.5,17.5C 16.5,15.5 16.5,13.5 16.5,11.5C 19.5468,10.8554 21.7135,11.8554 23,14.5C 23.6667,19.1667 23.6667,23.8333 23,28.5C 21.6439,29.3802 20.1439,29.7135 18.5,29.5 Z"/></g>
<g><path style="opacity:0.368" fill="#020202" d="M 59.5,28.5 C 59.665,25.1501 59.4983,21.8168 59,18.5C 58.6174,17.944 58.1174,17.6107 57.5,17.5C 57.5,15.5 57.5,13.5 57.5,11.5C 60.0444,11.1043 62.2111,11.771 64,13.5C 64.6667,17.8333 64.6667,22.1667 64,26.5C 62.8904,28.0368 61.3904,28.7035 59.5,28.5 Z"/></g>
<g><path style="opacity:0.421" fill="#090909" d="M 116.5,11.5 C 115.375,13.1288 114.041,14.6288 112.5,16C 108.848,16.4986 105.182,16.6653 101.5,16.5C 100.199,15.1155 100.199,13.6155 101.5,12C 106.489,11.5007 111.489,11.3341 116.5,11.5 Z"/></g>
<g><path style="opacity:0.41" fill="#020202" d="M 144.5,52.5 C 144.667,41.495 144.5,30.495 144,19.5C 143.722,18.5842 143.222,17.9175 142.5,17.5C 141.539,15.7354 141.205,13.7354 141.5,11.5C 144.365,11.0548 146.865,11.7215 149,13.5C 149.667,26.1667 149.667,38.8333 149,51.5C 147.644,52.3802 146.144,52.7135 144.5,52.5 Z"/></g>
<g><path style="opacity:0.981" fill="#e8ece8" d="M 356.5,11.5 C 357.496,11.4142 358.329,11.7476 359,12.5C 360.548,23.1703 362.048,33.837 363.5,44.5C 359.833,44.5 356.167,44.5 352.5,44.5C 354.02,33.5238 355.354,22.5238 356.5,11.5 Z"/></g>
<g><path style="opacity:0.424" fill="#000000" d="M 460.5,11.5 C 458.69,15.3108 455.69,16.9775 451.5,16.5C 451.5,14.8333 451.5,13.1667 451.5,11.5C 454.5,11.5 457.5,11.5 460.5,11.5 Z"/></g>
<g><path style="opacity:0.879" fill="#f5f7f5" d="M 503.5,27.5 C 503.5,30.5 503.5,33.5 503.5,36.5C 503.167,36.5 502.833,36.5 502.5,36.5C 498.833,36.5 495.167,36.5 491.5,36.5C 491.5,38.5 491.5,40.5 491.5,42.5C 491.795,44.7354 491.461,46.7354 490.5,48.5C 487.833,48.5 485.167,48.5 482.5,48.5C 482.5,44.5 482.5,40.5 482.5,36.5C 478.5,36.5 474.5,36.5 470.5,36.5C 470.5,33.8333 470.5,31.1667 470.5,28.5C 472.607,27.5318 474.941,27.1984 477.5,27.5C 479.167,27.5 480.833,27.5 482.5,27.5C 482.5,23.8333 482.5,20.1667 482.5,16.5C 485.287,15.5233 488.287,15.19 491.5,15.5C 491.5,19.5 491.5,23.5 491.5,27.5C 495.5,27.5 499.5,27.5 503.5,27.5 Z"/></g>
<g><path style="opacity:0.394" fill="#000000" d="M 482.5,16.5 C 482.5,20.1667 482.5,23.8333 482.5,27.5C 480.833,27.5 479.167,27.5 477.5,27.5C 476.389,22.4747 478.056,18.808 482.5,16.5 Z"/></g>
<g><path style="opacity:1" fill="#226525" d="M 484.5,18.5 C 486.167,18.5 487.833,18.5 489.5,18.5C 489.5,22.1667 489.5,25.8333 489.5,29.5C 493.5,29.5 497.5,29.5 501.5,29.5C 501.5,31.1667 501.5,32.8333 501.5,34.5C 497.5,34.5 493.5,34.5 489.5,34.5C 489.5,38.5 489.5,42.5 489.5,46.5C 487.833,46.5 486.167,46.5 484.5,46.5C 484.5,42.5 484.5,38.5 484.5,34.5C 480.5,34.5 476.5,34.5 472.5,34.5C 472.5,32.8333 472.5,31.1667 472.5,29.5C 476.5,29.5 480.5,29.5 484.5,29.5C 484.5,25.8333 484.5,22.1667 484.5,18.5 Z"/></g>
<g><path style="opacity:0.522" fill="#595959" d="M 318.5,1.5 C 319.658,10.9911 319.825,20.6578 319,30.5C 318.648,28.7525 318.148,27.0858 317.5,25.5C 318.492,17.6841 318.826,9.68413 318.5,1.5 Z"/></g>
<g><path style="opacity:0.398" fill="#0f0f0f" d="M 357.5,20.5 C 359.218,27.5995 360.218,34.9328 360.5,42.5C 358.833,42.5 357.167,42.5 355.5,42.5C 355.73,35.1232 356.396,27.7899 357.5,20.5 Z"/></g>
<g><path style="opacity:0.338" fill="#060606" d="M 418.5,64.5 C 417.375,66.1288 416.041,67.6288 414.5,69C 410.443,69.3616 406.443,69.3616 402.5,69C 400.596,63.1797 398.929,57.6797 397.5,52.5C 397.334,44.4931 397.5,36.4931 398,28.5C 401.309,39.7355 404.309,51.0688 407,62.5C 410.935,63.1378 414.769,63.8045 418.5,64.5 Z"/></g>
<g><path style="opacity:0.374" fill="#030303" d="M 470.5,28.5 C 470.5,31.1667 470.5,33.8333 470.5,36.5C 474.5,36.5 478.5,36.5 482.5,36.5C 482.5,40.5 482.5,44.5 482.5,48.5C 485.167,48.5 487.833,48.5 490.5,48.5C 487.472,53.0939 483.139,54.7605 477.5,53.5C 477.5,49.8333 477.5,46.1667 477.5,42.5C 473.563,42.7935 469.73,42.4601 466,41.5C 464.245,35.8708 465.745,31.5374 470.5,28.5 Z"/></g>
<g><path style="opacity:0.341" fill="#070707" d="M 328.5,64.5 C 327.375,66.1288 326.041,67.6288 324.5,69C 321.161,69.1692 317.828,69.3358 314.5,69.5C 312.203,67.2051 310.87,64.3718 310.5,61C 310.645,60.228 310.978,59.5613 311.5,59C 310.186,58.015 309.186,56.8484 308.5,55.5C 308.334,47.16 308.5,38.8267 309,30.5C 312.303,41.3794 315.137,52.3794 317.5,63.5C 321.371,63.185 325.038,63.5184 328.5,64.5 Z"/></g>
<g><path style="opacity:0.394" fill="#0a0a0a" d="M 113.5,37.5 C 110.833,42.0281 106.833,43.6947 101.5,42.5C 100.699,40.9582 100.366,39.2915 100.5,37.5C 104.833,37.5 109.167,37.5 113.5,37.5 Z"/></g>
<g><path style="opacity:0.339" fill="#0e0e0e" d="M 502.5,36.5 C 500.234,41.1053 496.567,43.1053 491.5,42.5C 491.5,40.5 491.5,38.5 491.5,36.5C 495.167,36.5 498.833,36.5 502.5,36.5 Z"/></g>
<g><path style="opacity:0.361" fill="#0b0b0b" d="M 29.5,38.5 C 26.1055,42.638 21.7722,45.3046 16.5,46.5C 16.5,44.5 16.5,42.5 16.5,40.5C 20.993,40.7306 25.3263,40.064 29.5,38.5 Z"/></g>
<g><path style="opacity:0.337" fill="#040404" d="M 76.5,64.5 C 75.1498,66.6829 73.3164,68.3496 71,69.5C 67.7821,69.5628 64.6154,69.3962 61.5,69C 61,68.5 60.5,68 60,67.5C 59.6667,60.8333 59.3333,54.1667 59,47.5C 58.7216,46.5842 58.2216,45.9175 57.5,45.5C 57.5,43.5 57.5,41.5 57.5,39.5C 60.0444,39.1043 62.2111,39.771 64,41.5C 64.2734,48.8667 64.7734,56.2001 65.5,63.5C 69.3714,63.185 73.0381,63.5184 76.5,64.5 Z"/></g>
<g><path style="opacity:0.334" fill="#090909" d="M 375.5,63.5 C 373.873,65.6298 372.04,67.6298 370,69.5C 366.567,69.1116 363.067,68.945 359.5,69C 359.909,65.4555 359.243,61.9555 357.5,58.5C 355.833,58.5 354.167,58.5 352.5,58.5C 352.5,56.5 352.5,54.5 352.5,52.5C 355.833,52.5 359.167,52.5 362.5,52.5C 362.952,55.876 363.618,59.2094 364.5,62.5C 368.107,63.4892 371.774,63.8226 375.5,63.5 Z"/></g>
</svg>
